<svg width="92" height="28" viewBox="0 0 92 28" fill="none" xmlns="http://www.w3.org/2000/svg">
<path d="M18 7.452C17.688 7.092 17.172 6.72 16.452 6.336C15.756 5.928 14.94 5.58 14.004 5.292C13.068 5.004 12.096 4.86 11.088 4.86C9.384 4.86 8.124 5.172 7.308 5.796C6.516 6.42 6.12 7.284 6.12 8.388C6.12 9.204 6.348 9.852 6.804 10.332C7.26 10.788 7.956 11.184 8.892 11.52C9.828 11.832 11.004 12.156 12.42 12.492C14.148 12.9 15.636 13.392 16.884 13.968C18.156 14.52 19.128 15.264 19.8 16.2C20.496 17.136 20.844 18.372 20.844 19.908C20.844 21.66 20.424 23.076 19.584 24.156C18.744 25.236 17.604 26.028 16.164 26.532C14.748 27.012 13.188 27.252 11.484 27.252C9.54 27.252 7.656 26.952 5.832 26.352C4.008 25.752 2.376 24.9 0.936 23.796L2.772 20.34C3.18 20.748 3.828 21.216 4.716 21.744C5.604 22.248 6.636 22.692 7.812 23.076C9.012 23.436 10.26 23.616 11.556 23.616C13.14 23.616 14.364 23.34 15.228 22.788C16.092 22.212 16.524 21.396 16.524 20.34C16.524 19.476 16.236 18.792 15.66 18.288C15.108 17.76 14.304 17.328 13.248 16.992C12.216 16.632 10.968 16.26 9.504 15.876C7.824 15.444 6.42 14.952 5.292 14.4C4.164 13.848 3.312 13.152 2.736 12.312C2.184 11.472 1.908 10.38 1.908 9.036C1.908 7.356 2.316 5.94 3.132 4.788C3.948 3.612 5.052 2.736 6.444 2.16C7.86 1.56 9.444 1.26 11.196 1.26C12.924 1.26 14.52 1.536 15.984 2.088C17.448 2.64 18.732 3.324 19.836 4.14L18 7.452ZM22.9807 21.492C22.9807 20.292 23.3167 19.248 23.9887 18.36C24.6607 17.448 25.5967 16.752 26.7967 16.272C28.0207 15.768 29.4247 15.516 31.0087 15.516C31.8487 15.516 32.7007 15.588 33.5647 15.732C34.4527 15.852 35.2327 16.032 35.9047 16.272V15.084C35.9047 13.764 35.5087 12.732 34.7167 11.988C33.9247 11.244 32.7847 10.872 31.2967 10.872C30.2647 10.872 29.2687 11.052 28.3087 11.412C27.3487 11.772 26.3527 12.3 25.3207 12.996L23.9887 10.332C25.2367 9.516 26.4847 8.904 27.7327 8.496C29.0047 8.064 30.3367 7.848 31.7287 7.848C34.2487 7.848 36.2287 8.52 37.6687 9.864C39.1327 11.184 39.8647 13.068 39.8647 15.516V22.536C39.8647 22.992 39.9367 23.316 40.0807 23.508C40.2487 23.7 40.5247 23.808 40.9087 23.832V27C40.5487 27.072 40.2247 27.12 39.9367 27.144C39.6487 27.168 39.4087 27.18 39.2167 27.18C38.3527 27.18 37.7047 26.976 37.2727 26.568C36.8647 26.136 36.6247 25.656 36.5527 25.128L36.4447 24.048C35.6287 25.104 34.5847 25.92 33.3127 26.496C32.0407 27.072 30.7567 27.36 29.4607 27.36C28.2127 27.36 27.0967 27.108 26.1127 26.604C25.1287 26.076 24.3607 25.368 23.8087 24.48C23.2567 23.592 22.9807 22.596 22.9807 21.492ZM34.9687 22.644C35.5927 22.02 35.9047 21.432 35.9047 20.88V18.72C34.4887 18.192 33.0487 17.928 31.5847 17.928C30.1447 17.928 28.9687 18.228 28.0567 18.828C27.1687 19.404 26.7247 20.184 26.7247 21.168C26.7247 21.984 27.0487 22.74 27.6967 23.436C28.3687 24.108 29.3287 24.444 30.5767 24.444C31.4167 24.444 32.2327 24.276 33.0247 23.94C33.8167 23.604 34.4647 23.172 34.9687 22.644ZM44.489 19.692V8.172H48.449V18.9C48.449 22.284 49.649 23.976 52.049 23.976C53.177 23.976 54.245 23.628 55.253 22.932C56.261 22.212 57.041 21.204 57.593 19.908V8.172H61.553V22.536C61.553 22.992 61.637 23.316 61.805 23.508C61.973 23.7 62.249 23.808 62.633 23.832V27C62.225 27.072 61.889 27.12 61.625 27.144C61.361 27.168 61.109 27.18 60.869 27.18C60.149 27.18 59.549 26.988 59.069 26.604C58.589 26.22 58.313 25.704 58.241 25.056L58.169 23.184C57.329 24.552 56.237 25.596 54.893 26.316C53.549 27.012 52.073 27.36 50.465 27.36C48.497 27.36 47.009 26.712 46.001 25.416C44.993 24.12 44.489 22.212 44.489 19.692ZM77.0473 26.028C76.5433 26.268 75.8473 26.544 74.9593 26.856C74.0713 27.144 73.1233 27.288 72.1153 27.288C70.8673 27.288 69.7873 26.952 68.8753 26.28C67.9873 25.608 67.5433 24.516 67.5433 23.004V11.232H65.0593V8.172H67.5433V1.98H71.5033V8.172H75.6073V11.232H71.5033V21.744C71.5513 22.416 71.7553 22.908 72.1153 23.22C72.4993 23.508 72.9673 23.652 73.5193 23.652C74.0713 23.652 74.5993 23.556 75.1033 23.364C75.6073 23.172 75.9793 23.016 76.2193 22.896L77.0473 26.028ZM79.7901 5.076V0.719999H83.7501V5.076H79.7901ZM79.7901 27V8.172H83.7501V27H79.7901Z" fill="#783200"/>
<path d="M88.3288 27V22.392H91.6048V27H88.3288Z" fill="#FE861C"/>
</svg>
